<svg width="342" height="20" viewBox="0 0 342 20" fill="none" xmlns="http://www.w3.org/2000/svg">
<path d="M114.207 5.30387H108.949V0.331491H126.153V5.30387H120.895V19.6685H114.207V5.30387Z" fill="#21FB2A"/>
<path d="M145.064 6.74033C145.064 8.30571 144.676 9.56722 143.901 10.5249C143.126 11.4825 142.027 12.1731 140.606 12.5967L146.833 19.6685H139.37L134.257 13.2597V19.6685H127.86V0.331491H136.172C137.528 0.331491 138.756 0.451196 139.855 0.690607C140.953 0.930018 141.89 1.31676 142.665 1.85083C143.441 2.36648 144.03 3.02947 144.434 3.83978C144.854 4.65009 145.064 5.61694 145.064 6.74033ZM138.619 6.74033C138.619 6.04052 138.377 5.53407 137.892 5.22099C137.423 4.90792 136.834 4.75138 136.123 4.75138H134.257V8.72928H136.123C136.834 8.72928 137.423 8.57274 137.892 8.25967C138.377 7.94659 138.619 7.44015 138.619 6.74033Z" fill="#21FB2A"/>
<path d="M152.791 0.331491H162.289L168.371 19.6685H161.32L160.472 16.3536H154.608L153.76 19.6685H146.709L152.791 0.331491ZM155.868 11.3812H159.188L157.54 4.94475L155.868 11.3812Z" fill="#21FB2A"/>
<path d="M176.623 0.331491V19.6685H169.936V0.331491H176.623Z" fill="#21FB2A"/>
<path d="M185.377 8.83978V19.6685H179.658V0.331491H186.879L193.639 11.1602V0.331491H199.358V19.6685H192.137L185.377 8.83978Z" fill="#21FB2A"/>
<path d="M209.065 0.331491V19.6685H202.377V0.331491H209.065Z" fill="#21FB2A"/>
<path d="M217.818 8.83978V19.6685H212.1V0.331491H219.32L226.081 11.1602V0.331491H231.799V19.6685H224.578L217.818 8.83978Z" fill="#21FB2A"/>
<path d="M248.17 12.3204H245.359V8.45304H253.501V18.7569C252.451 19.1805 251.296 19.4936 250.036 19.6961C248.776 19.8987 247.499 20 246.207 20C244.236 20 242.492 19.7698 240.973 19.3094C239.455 18.849 238.171 18.1952 237.121 17.3481C236.087 16.4825 235.303 15.4328 234.77 14.1989C234.237 12.965 233.971 11.5654 233.971 10C233.971 8.5267 234.213 7.18232 234.698 5.96685C235.198 4.73297 235.933 3.67403 236.903 2.79006C237.888 1.90608 239.116 1.22468 240.586 0.745855C242.072 0.248618 243.808 0 245.795 0C247.184 0 248.501 0.110497 249.745 0.331491C251.005 0.53407 252.119 0.837937 253.089 1.24309L252.677 5.88398C251.998 5.5709 251.191 5.32228 250.254 5.13812C249.333 4.95396 248.388 4.86188 247.419 4.86188C245.302 4.86188 243.655 5.26704 242.476 6.07735C241.296 6.86925 240.707 8.1768 240.707 10C240.707 10.9024 240.852 11.6851 241.143 12.3481C241.45 12.9926 241.862 13.5267 242.379 13.9503C242.896 14.3554 243.485 14.6593 244.148 14.8619C244.826 15.046 245.545 15.1381 246.304 15.1381C246.627 15.1381 246.95 15.1289 247.273 15.1105C247.612 15.0737 247.911 15.0276 248.17 14.9724V12.3204Z" fill="#21FB2A"/>
<path d="M264.283 9.97238C264.283 8.407 264.525 7.00737 265.009 5.77348C265.51 4.52118 266.237 3.47145 267.19 2.62431C268.143 1.77716 269.306 1.1326 270.679 0.690607C272.053 0.230202 273.628 0 275.404 0C276.551 0 277.658 0.101289 278.724 0.303867C279.806 0.488029 280.735 0.745855 281.511 1.07735L281.099 5.85635C280.582 5.58011 279.927 5.36832 279.136 5.22099C278.344 5.05525 277.577 4.97238 276.834 4.97238C274.879 4.97238 273.418 5.37753 272.448 6.18785C271.495 6.99816 271.019 8.25967 271.019 9.97238C271.019 13.3425 272.989 15.0276 276.931 15.0276C277.658 15.0276 278.401 14.9632 279.16 14.8343C279.936 14.6869 280.63 14.4567 281.244 14.1436L281.656 18.9779C280.816 19.3278 279.847 19.5856 278.748 19.7514C277.666 19.9171 276.543 20 275.38 20C273.603 20 272.028 19.779 270.655 19.337C269.282 18.8766 268.119 18.2136 267.166 17.3481C266.229 16.4825 265.51 15.4328 265.009 14.1989C264.525 12.965 264.283 11.5562 264.283 9.97238Z" fill="#21FB2A"/>
<path d="M283.727 0.331491H290.414V14.6961H299.598V19.6685H283.727V0.331491Z" fill="#21FB2A"/>
<path d="M310.431 20C308.945 20 307.612 19.825 306.433 19.4751C305.253 19.1068 304.244 18.5727 303.404 17.8729C302.564 17.1547 301.918 16.2615 301.465 15.1934C301.029 14.1068 300.811 12.8453 300.811 11.4088V0.331491H307.547V11.6022C307.547 12.8177 307.781 13.6832 308.25 14.1989C308.735 14.7145 309.461 14.9724 310.431 14.9724C311.4 14.9724 312.119 14.7145 312.587 14.1989C313.072 13.6832 313.314 12.8177 313.314 11.6022V0.331491H320.05V11.4088C320.05 12.8453 319.824 14.1068 319.372 15.1934C318.936 16.2615 318.298 17.1547 317.458 17.8729C316.618 18.5727 315.6 19.1068 314.405 19.4751C313.225 19.825 311.901 20 310.431 20Z" fill="#21FB2A"/>
<path d="M338.104 9.36464C339.073 9.6593 339.808 10.2118 340.309 11.0221C340.809 11.814 341.06 12.7072 341.06 13.7017C341.06 15.7643 340.284 17.2744 338.734 18.232C337.199 19.1897 334.986 19.6685 332.094 19.6685H322.959V0.331491H331.755C334.437 0.331491 336.512 0.764271 337.982 1.62983C339.469 2.4954 340.212 3.82136 340.212 5.60774C340.212 6.49171 340.026 7.25599 339.654 7.90055C339.299 8.5267 338.782 9.01473 338.104 9.36464ZM331.925 15.5249C332.781 15.5249 333.403 15.3499 333.791 15C334.178 14.6317 334.372 14.1805 334.372 13.6464C334.372 13.1123 334.178 12.6704 333.791 12.3204C333.403 11.9521 332.781 11.768 331.925 11.768H329.356V15.5249H331.925ZM329.356 4.47514V7.67956H331.682C332.458 7.67956 332.999 7.53223 333.306 7.23757C333.613 6.92449 333.766 6.53775 333.766 6.07735C333.766 5.61694 333.613 5.23941 333.306 4.94475C332.999 4.63168 332.458 4.47514 331.682 4.47514H329.356Z" fill="#21FB2A"/>
<path d="M6.82462 19.6353H0.500193C0.348913 19.6353 0.206895 19.5678 0.111188 19.4512C0.01548 19.3346 -0.0200247 19.1827 0.0108487 19.0354L3.93949 0.6677C3.98889 0.43912 4.1942 0.273438 4.42884 0.273438H10.7533C10.9045 0.273438 11.0466 0.340937 11.1423 0.457529C11.238 0.57412 11.2735 0.725996 11.2426 0.873269L7.31396 19.2395C7.26611 19.4696 7.05926 19.6353 6.82462 19.6353ZM0.89632 18.7676H6.47171L10.3571 1.14114H4.78174L0.89632 18.7676Z" fill="black"/>
<path d="M30.8287 19.635H23.6815C23.5071 19.635 23.3434 19.5429 23.2539 19.3957L18.9918 12.4017L17.5392 19.2407C17.4914 19.4693 17.2845 19.635 17.0499 19.635H10.7254C10.5742 19.635 10.4321 19.5675 10.3364 19.4509C10.2407 19.3343 10.2037 19.1824 10.2361 19.0352L14.1647 0.695044C14.2141 0.466464 14.4195 0.300781 14.6541 0.300781H27.2319C31.1205 0.300781 33.9423 2.83511 33.9423 6.32671C33.9423 8.32257 33.2939 10.0009 32.0683 11.1821C30.9013 12.3066 29.2017 12.9862 27.144 13.1519L31.2347 18.8495C31.3443 19.0014 31.3582 19.1993 31.2717 19.365C31.1868 19.5307 31.017 19.635 30.8287 19.635ZM24.0097 18.7673H30.0889L26.2785 13.3529C26.1736 13.2071 26.1566 12.7429 26.2338 12.5803C26.311 12.4177 26.7441 12.3087 26.9247 12.298C31.0016 12.0295 33.0676 10.0254 33.0676 6.32671C33.0676 3.18028 30.77 1.16695 27.2304 1.16695H15.0054L11.12 18.7657H16.6954L18.1835 12.0305C18.2267 11.8295 18.6584 11.6776 18.8621 11.6423C19.0659 11.6086 19.5392 11.6991 19.6457 11.8755L24.0097 18.7673ZM23.0825 10.2427H19.5059C19.3546 10.2427 18.9399 10.1752 18.8442 10.0586C18.7485 9.94198 18.713 9.7901 18.7439 9.64129L19.6006 5.13377C19.65 4.90673 20.128 4.74105 20.3626 4.74105H24.1878C25.9106 4.74105 27.2113 5.83426 27.2113 7.21035C27.2113 9.97172 24.0365 10.2427 23.0825 10.2427ZM19.6293 9.37496H23.0825C25.9677 9.37496 26.3382 8.21825 26.3382 7.21035C26.3382 6.17637 25.574 5.60722 24.1878 5.60722H20.4444L19.6293 9.37496Z" fill="black"/>
<path d="M54.7035 19.635H46.4156C46.2025 19.635 46.0127 19.5 45.9432 19.3006L42.2476 8.64472L39.9754 19.2423C39.926 19.4708 39.7206 19.6365 39.486 19.6365H33.9149C33.7636 19.6365 33.6216 19.569 33.5259 19.4524C33.4302 19.3358 33.3931 19.184 33.4255 19.0367L37.3542 0.696578C37.4036 0.467998 37.6089 0.302316 37.8435 0.302316H46.3986C46.6147 0.302316 46.8046 0.43885 46.8725 0.642885L50.3828 11.1085L52.5995 0.695044C52.6474 0.466464 52.8542 0.300781 53.0888 0.300781H58.6322C58.7835 0.300781 58.9255 0.368282 59.0212 0.484873C59.1169 0.601464 59.1539 0.753339 59.1215 0.900612L55.1929 19.2407C55.1435 19.4693 54.9382 19.635 54.7035 19.635ZM46.7607 18.7673H54.3506L58.236 1.16849H53.4418L51.1664 11.8596C51.1185 12.082 50.6606 12.2401 50.4322 12.2523C50.2053 12.2692 49.7289 12.1296 49.6563 11.9133L46.0534 1.16849H38.1964L34.311 18.7673H39.1316L41.4625 8.17069C41.5104 7.94978 41.9667 7.79177 42.1936 7.77796C42.4252 7.76415 42.8954 7.89915 42.9695 8.11239L46.7607 18.7673Z" fill="black"/>
<path d="M70.8873 19.635H58.6629C58.5117 19.635 58.3696 19.5675 58.2739 19.4509C58.1782 19.3343 58.1412 19.1824 58.1736 19.0352L62.1022 0.695044C62.1516 0.466464 62.357 0.300781 62.5916 0.300781H74.2C79.1676 0.300781 80.9381 2.86119 80.9381 5.25591C80.9381 7.21035 79.7958 8.64779 77.7921 9.23382C79.1645 10.0162 79.8885 11.4015 79.8885 13.2593C79.8869 17.1927 76.4383 19.635 70.8873 19.635ZM59.0591 18.7673H70.8873C73.3062 18.7673 75.0944 18.5488 76.5717 17.6223C78.1925 16.6067 79.0138 15.1386 79.0138 13.2608C79.0138 11.5457 78.3253 10.5679 77.0224 9.91897C76.8341 9.82539 76.7276 9.35961 76.7508 9.15098C76.7739 8.94234 76.9206 8.50418 77.1228 8.45356C79.0184 7.98106 80.0635 7.02012 80.0635 5.25744C80.0635 2.56817 77.9851 1.16849 74.1985 1.16849H62.9429L59.0591 18.7673ZM69.836 15.543H66.1791C66.0263 15.543 65.6132 15.4755 65.5174 15.3573C65.4217 15.2392 65.3862 14.8164 65.4187 14.6691L66.0855 11.6132C66.1349 11.3862 66.6129 10.9511 66.8475 10.9511H70.7808C72.9203 10.9511 73.6421 12.2437 73.6421 13.0997C73.6406 14.5403 72.1809 15.543 69.836 15.543ZM66.3026 14.6753H69.836C72.7675 14.6753 72.7675 13.4894 72.7675 13.0997C72.7675 12.7822 72.7675 11.8188 70.7777 11.8188H66.9247L66.3026 14.6753ZM71.2902 8.63646H67.6595C67.5082 8.63646 67.0935 8.56896 66.9978 8.45237C66.9021 8.33424 66.8666 7.91143 66.8975 7.76416L67.4841 5.05648C67.5335 4.82943 68.0114 4.39281 68.2461 4.39281H71.9092C73.3772 4.39281 74.3939 5.24057 74.3939 6.3804C74.3955 7.28552 73.6319 8.63646 71.2902 8.63646ZM67.783 7.76876H71.2902C73.5223 7.76876 73.5223 6.72404 73.5223 6.3804C73.5223 5.82659 73.3309 5.26051 71.9092 5.26051H68.3263L67.783 7.76876Z" fill="black"/>
<path d="M92.8112 19.635H85.948C85.7967 19.635 85.6547 19.5675 85.559 19.4509C85.4633 19.3343 85.4263 19.1824 85.4571 19.0352L86.706 12.8595L81.4235 0.995727C81.3571 0.840783 81.3726 0.665896 81.4652 0.52476C81.5578 0.383623 81.7137 0.300781 81.8835 0.300781H88.6633C88.8671 0.300781 89.0493 0.421975 89.1264 0.610669L91.7121 6.92654L96.9884 0.484873C97.0841 0.368282 97.2246 0.300781 97.3758 0.300781H104.735C104.932 0.300781 105.107 0.412771 105.19 0.590726C105.272 0.770215 105.242 0.974249 105.113 1.12306L94.5679 13.2363L93.2975 19.2392C93.2511 19.4678 93.0458 19.635 92.8112 19.635ZM86.3426 18.7673H92.4567L93.7164 13.089C93.7334 13.0062 93.772 12.6585 93.8275 12.5956L103.973 1.16849H97.6979L92.3444 7.70373C92.2317 7.8418 91.7862 7.90777 91.6102 7.88169C91.4342 7.85561 91.015 7.74208 90.9486 7.57794L88.3243 1.16849H82.5816L87.5436 12.3814C87.5853 12.4765 87.5961 12.8518 87.5745 12.9531L86.3426 18.7673Z" fill="black"/>
</svg>
